<svg width="50" height="50" viewBox="0 0 50 50" fill="none" xmlns="http://www.w3.org/2000/svg">
<path d="M12 23.403V23.39V10.389L11.88 10.3H11.87L9.14 8.28C7.47 7.04 5.09 7.1 3.61 8.56C2.62 9.54 2 10.9 2 12.41V16.012L12 23.403ZM38 23.39V23.403L48 16.012V12.41C48 10.92 47.4 9.56 46.42 8.58C44.96 7.123 42.655 6.952 40.996 8.177L38.12 10.3L38 10.389V23.39ZM14 24.868L24.406 32.56C24.759 32.821 25.242 32.821 25.595 32.56L36 24.868V11.867L25 20L14 11.867V24.868ZM38 25.889V41C38 41.552 38.448 42 39 42H45.5C46.881 42 48 40.881 48 39.5V18.497L38 25.889ZM12 25.889L2 18.497V39.5C2 40.881 3.119 42 4.5 42H11C11.552 42 12 41.552 12 41V25.889Z" fill="white"/>
</svg>
